<svg width="24" height="24" viewBox="0 0 24 24" fill="none" xmlns="http://www.w3.org/2000/svg">
<path d="M21.375 2.25H2.625C2.12772 2.25 1.65081 2.44754 1.29917 2.79917C0.947544 3.15081 0.75 3.62772 0.75 4.125V5.79C1.26318 5.3243 1.93202 5.06747 2.625 5.07V4.125H21.375V5.07C22.068 5.06747 22.7368 5.3243 23.25 5.79V4.125C23.25 3.62772 23.0525 3.15081 22.7008 2.79917C22.3492 2.44754 21.8723 2.25 21.375 2.25ZM21.375 6H2.625C2.12772 6 1.65081 6.19754 1.29917 6.54917C0.947544 6.90081 0.75 7.37772 0.75 7.875V9.54C1.26318 9.0743 1.93202 8.81747 2.625 8.82V7.875H21.375V8.82C22.068 8.81747 22.7368 9.0743 23.25 9.54V7.875C23.25 7.37772 23.0525 6.90081 22.7008 6.54917C22.3492 6.19754 21.8723 6 21.375 6ZM21.375 9.75H15.75C15.7148 10.7116 15.3008 11.6202 14.5983 12.2777C13.8958 12.9353 12.9618 13.2884 12 13.26C11.0382 13.2884 10.1042 12.9353 9.40172 12.2777C8.69922 11.6202 8.28522 10.7116 8.25 9.75H2.625C2.12772 9.75 1.65081 9.94754 1.29917 10.2992C0.947544 10.6508 0.75 11.1277 0.75 11.625V19.875C0.75 20.3723 0.947544 20.8492 1.29917 21.2008C1.65081 21.5525 2.12772 21.75 2.625 21.75H21.375C21.8723 21.75 22.3492 21.5525 22.7008 21.2008C23.0525 20.8492 23.25 20.3723 23.25 19.875V11.625C23.25 11.1277 23.0525 10.6508 22.7008 10.2992C22.3492 9.94754 21.8723 9.75 21.375 9.75ZM21.375 19.875H2.625V11.625H6.72C7.14691 12.6719 7.87859 13.5663 8.8201 14.1922C9.76161 14.818 10.8695 15.1465 12 15.135C13.131 15.1486 14.2397 14.8209 15.1816 14.1948C16.1235 13.5686 16.8548 12.6731 17.28 11.625H21.375V19.875Z" fill="#000418"/>
</svg>
