<svg width="27" height="27" viewBox="0 0 27 27" fill="none" xmlns="http://www.w3.org/2000/svg">
<path d="M23.5 2H4.75C2.6825 2 1 3.71989 1 5.83333V21.1667C1 23.2801 2.6825 25 4.75 25H23.5C24.8787 25 26 23.8538 26 22.4444V4.55556C26 3.14617 24.8787 2 23.5 2ZM4.75 22.4444C4.06 22.4444 3.5 21.8707 3.5 21.1667V5.83333C3.5 5.12928 4.06 4.55556 4.75 4.55556H23.5V8.38889H16C14.6213 8.38889 13.5 9.53506 13.5 10.9444V16.0556C13.5 17.4649 14.6213 18.6111 16 18.6111H23.5012V22.4444H4.75ZM23.5 10.9444V16.0556H16V10.9444H23.5Z" fill="#02E44C"/>
</svg>
