<svg width="27" height="27" viewBox="0 0 27 27" fill="none" xmlns="http://www.w3.org/2000/svg">
<path d="M22.5 2.25H11.25C10.3549 2.25 9.49645 2.60558 8.86351 3.23851C8.23058 3.87145 7.875 4.72989 7.875 5.625V13.5C7.875 14.3951 8.23058 15.2536 8.86351 15.8865C9.49645 16.5194 10.3549 16.875 11.25 16.875H22.5C23.3951 16.875 24.2535 16.5194 24.8865 15.8865C25.5194 15.2536 25.875 14.3951 25.875 13.5V5.625C25.875 4.72989 25.5194 3.87145 24.8865 3.23851C24.2535 2.60558 23.3951 2.25 22.5 2.25ZM23.625 13.5C23.625 13.7984 23.5065 14.0845 23.2955 14.2955C23.0845 14.5065 22.7984 14.625 22.5 14.625H11.25C10.9516 14.625 10.6655 14.5065 10.4545 14.2955C10.2435 14.0845 10.125 13.7984 10.125 13.5V5.625C10.125 5.32663 10.2435 5.04048 10.4545 4.82951C10.6655 4.61853 10.9516 4.5 11.25 4.5H22.5C22.7984 4.5 23.0845 4.61853 23.2955 4.82951C23.5065 5.04048 23.625 5.32663 23.625 5.625V13.5ZM19.6875 9C19.271 9.00141 18.87 9.15782 18.5625 9.43875C18.3206 9.21887 18.02 9.07399 17.6973 9.02171C17.3746 8.96944 17.0437 9.01202 16.7447 9.14429C16.4458 9.27655 16.1917 9.49281 16.0133 9.76677C15.8349 10.0407 15.74 10.3606 15.74 10.6875C15.74 11.0144 15.8349 11.3343 16.0133 11.6082C16.1917 11.8822 16.4458 12.0984 16.7447 12.2307C17.0437 12.363 17.3746 12.4056 17.6973 12.3533C18.02 12.301 18.3206 12.1561 18.5625 11.9363C18.7657 12.1209 19.0108 12.2532 19.2766 12.3217C19.5425 12.3901 19.821 12.3927 20.0881 12.3291C20.3552 12.2656 20.6027 12.1378 20.8093 11.957C21.0158 11.7761 21.1751 11.5476 21.2733 11.2912C21.3715 11.0349 21.4057 10.7584 21.3729 10.4859C21.3401 10.2133 21.2413 9.95285 21.0851 9.72711C20.9288 9.50137 20.7199 9.31716 20.4763 9.19046C20.2328 9.06375 19.962 8.99838 19.6875 9ZM18 19.125C17.7016 19.125 17.4155 19.2435 17.2045 19.4545C16.9935 19.6655 16.875 19.9516 16.875 20.25V21.375C16.875 21.6734 16.7565 21.9595 16.5455 22.1705C16.3345 22.3815 16.0484 22.5 15.75 22.5H4.5C4.20163 22.5 3.91548 22.3815 3.7045 22.1705C3.49353 21.9595 3.375 21.6734 3.375 21.375V16.875H4.5C4.79837 16.875 5.08452 16.7565 5.29549 16.5455C5.50647 16.3345 5.625 16.0484 5.625 15.75C5.625 15.4516 5.50647 15.1655 5.29549 14.9545C5.08452 14.7435 4.79837 14.625 4.5 14.625H3.375V13.5C3.375 13.2016 3.49353 12.9155 3.7045 12.7045C3.91548 12.4935 4.20163 12.375 4.5 12.375C4.79837 12.375 5.08452 12.2565 5.29549 12.0455C5.50647 11.8345 5.625 11.5484 5.625 11.25C5.625 10.9516 5.50647 10.6655 5.29549 10.4545C5.08452 10.2435 4.79837 10.125 4.5 10.125C3.60489 10.125 2.74645 10.4806 2.11351 11.1135C1.48058 11.7465 1.125 12.6049 1.125 13.5V21.375C1.125 22.2701 1.48058 23.1286 2.11351 23.7615C2.74645 24.3944 3.60489 24.75 4.5 24.75H15.75C16.6451 24.75 17.5035 24.3944 18.1365 23.7615C18.7694 23.1286 19.125 22.2701 19.125 21.375V20.25C19.125 19.9516 19.0065 19.6655 18.7955 19.4545C18.5845 19.2435 18.2984 19.125 18 19.125ZM6.75 20.25H7.875C8.17337 20.25 8.45952 20.1315 8.67049 19.9205C8.88147 19.7095 9 19.4234 9 19.125C9 18.8266 8.88147 18.5405 8.67049 18.3295C8.45952 18.1185 8.17337 18 7.875 18H6.75C6.45163 18 6.16548 18.1185 5.9545 18.3295C5.74353 18.5405 5.625 18.8266 5.625 19.125C5.625 19.4234 5.74353 19.7095 5.9545 19.9205C6.16548 20.1315 6.45163 20.25 6.75 20.25Z" fill="#F24E1E"/>
</svg>
